{
  "accessors": [
    {
      "bufferView": 2,
      "componentType": 5126,
      "count": 5960,
      "max": [
        0.09073510020971298,
        0.09247902035713196,
        0.09034846723079681
      ],
      "min": [
        -0.09149650484323502,
        -0.052040956914424896,
        -0.08856042474508286
      ],
      "type": "VEC3"
    },
    {
      "bufferView": 2,
      "byteOffset": 71520,
      "componentType": 5126,
      "count": 5960,
      "max": [
        0.9988210797309875,
        0.9999599456787109,
        0.999698281288147
      ],
      "min": [
        -0.999669075012207,
        -0.9999645948410034,
        -0.9998782873153687
      ],
      "type": "VEC3"
    },
    {
      "bufferView": 3,
      "componentType": 5126,
      "count": 5960,
      "max": [
        0.9265617728233337,
        0.8705980777740479,
        0.9083568453788757,
        1.0
      ],
      "min": [
        -0.9846745729446411,
        -0.9594302773475647,
        -0.9416428208351135,
        1.0
      ],
      "type": "VEC4"
    },
    {
      "bufferView": 1,
      "componentType": 5126,
      "count": 5960,
      "max": [
        0.9889785051345825,
        0.9259535074234009
      ],
      "min": [
        0.01746152713894844,
        0.012044789269566536
      ],
      "type": "VEC2"
    },
    {
      "bufferView": 0,
      "componentType": 5125,
      "count": 33192,
      "type": "SCALAR"
    }
  ],
  "asset": {
    "extras": {
      "author": "marksjus (https://sketchfab.com/marksjus)",
      "license": "CC-BY-4.0 (http://creativecommons.org/licenses/by/4.0/)",
      "source": "https://sketchfab.com/3d-models/pumpkin-4821a4f368bc4b9e8eec4533f270dbf5",
      "title": "Pumpkin"
    },
    "generator": "Sketchfab-12.68.0",
    "version": "2.0"
  },
  "bufferViews": [
    {
      "buffer": 0,
      "byteLength": 132768,
      "name": "floatBufferViews",
      "target": 34963
    },
    {
      "buffer": 0,
      "byteLength": 47680,
      "byteOffset": 132768,
      "byteStride": 8,
      "name": "floatBufferViews",
      "target": 34962
    },
    {
      "buffer": 0,
      "byteLength": 143040,
      "byteOffset": 180448,
      "byteStride": 12,
      "name": "floatBufferViews",
      "target": 34962
    },
    {
      "buffer": 0,
      "byteLength": 95360,
      "byteOffset": 323488,
      "byteStride": 16,
      "name": "floatBufferViews",
      "target": 34962
    }
  ],
  "buffers": [
    {
      "byteLength": 418848,
      "uri": "scene.bin"
    }
  ],
  "images": [
    {
      "uri": "textures/pumpkin_baseColor.png"
    },
    {
      "uri": "textures/pumpkin_metallicRoughness.png"
    },
    {
      "uri": "textures/pumpkin_normal.png"
    }
  ],
  "materials": [
    {
      "doubleSided": true,
      "name": "pumpkin",
      "normalTexture": {
        "index": 2
      },
      "pbrMetallicRoughness": {
        "baseColorTexture": {
          "index": 0
        },
        "metallicFactor": 0.0,
        "metallicRoughnessTexture": {
          "index": 1
        }
      }
    }
  ],
  "meshes": [
    {
      "name": "Object_0",
      "primitives": [
        {
          "attributes": {
            "NORMAL": 1,
            "POSITION": 0,
            "TANGENT": 2,
            "TEXCOORD_0": 3
          },
          "indices": 4,
          "material": 0,
          "mode": 4
        }
      ]
    }
  ],
  "nodes": [
    {
      "children": [
        1
      ],
      "matrix": [
        1.605958342552185,
        0.0,
        0.0,
        0.0,
        0.0,
        3.5659438569805803e-16,
        -1.605958342552185,
        0.0,
        0.0,
        1.605958342552185,
        3.5659438569805803e-16,
        0.0,
        0.0,
        0.0,
        0.0,
        1.0
      ],
      "name": "Sketchfab_model"
    },
    {
      "children": [
        2
      ],
      "name": "root"
    },
    {
      "children": [
        3
      ],
      "matrix": [
        1.0,
        0.0,
        0.0,
        0.0,
        0.0,
        2.220446049250313e-16,
        1.0,
        0.0,
        0.0,
        -1.0,
        2.220446049250313e-16,
        0.0,
        0.0,
        0.0,
        0.0,
        1.0
      ],
      "name": "GLTF_SceneRootNode"
    },
    {
      "children": [
        4
      ],
      "name": "Pumpkin_0"
    },
    {
      "mesh": 0,
      "name": "Object_4"
    }
  ],
  "samplers": [
    {
      "magFilter": 9729,
      "minFilter": 9987,
      "wrapS": 10497,
      "wrapT": 10497
    }
  ],
  "scene": 0,
  "scenes": [
    {
      "name": "Sketchfab_Scene",
      "nodes": [
        0
      ]
    }
  ],
  "textures": [
    {
      "sampler": 0,
      "source": 0
    },
    {
      "sampler": 0,
      "source": 1
    },
    {
      "sampler": 0,
      "source": 2
    }
  ]
}
